<?xml version="1.0" encoding="UTF-8" standalone="no"?>
<svg
   xmlns:dc="http://purl.org/dc/elements/1.1/"
   xmlns:cc="http://creativecommons.org/ns#"
   xmlns:rdf="http://www.w3.org/1999/02/22-rdf-syntax-ns#"
   xmlns:svg="http://www.w3.org/2000/svg"
   xmlns="http://www.w3.org/2000/svg"
   xmlns:sodipodi="http://sodipodi.sourceforge.net/DTD/sodipodi-0.dtd"
   xmlns:inkscape="http://www.inkscape.org/namespaces/inkscape"
   inkscape:export-ydpi="96"
   inkscape:export-xdpi="96"
   inkscape:export-filename="C:\Users\emili\Downloads\logotitle.png"
   inkscape:version="1.0 (4035a4fb49, 2020-05-01)"
   sodipodi:docname="logotitle.svg"
   id="svg13"
   version="1.1"
   viewBox="0 0 185.14191 64.898705"
   height="64.898705pt"
   width="185.14191pt">
  <metadata
     id="metadata19">
    <rdf:RDF>
      <cc:Work
         rdf:about="">
        <dc:format>image/svg+xml</dc:format>
        <dc:type
           rdf:resource="http://purl.org/dc/dcmitype/StillImage" />
        <dc:title></dc:title>
      </cc:Work>
    </rdf:RDF>
  </metadata>
  <defs
     id="defs17" />
  <sodipodi:namedview
     fit-margin-bottom="0"
     fit-margin-right="0"
     fit-margin-left="0"
     fit-margin-top="0"
     lock-margins="false"
     inkscape:snap-text-baseline="false"
     inkscape:current-layer="text39"
     inkscape:window-maximized="1"
     inkscape:window-y="-8"
     inkscape:window-x="-8"
     inkscape:cy="13.273139"
     inkscape:cx="134.64545"
     inkscape:zoom="5.8153846"
     showgrid="false"
     id="namedview15"
     inkscape:window-height="1387"
     inkscape:window-width="2560"
     inkscape:pageshadow="2"
     inkscape:pageopacity="0"
     guidetolerance="10"
     gridtolerance="10"
     objecttolerance="10"
     borderopacity="1"
     bordercolor="#666666"
     pagecolor="#ffffff" />
  <g
     transform="translate(0.00181049,-0.00915637)"
     id="surface1">
    <g
       style="fill:#f2f1ec;fill-opacity:1"
       id="g872">
      <path
         style="fill:#f2f1ec;fill-opacity:1;fill-rule:nonzero;stroke:none"
         d="m 27.585938,0.488281 c -0.980469,0.984375 -0.640626,2.203125 1.117187,4.03125 0.914063,0.914063 1.761719,2.03125 1.863281,2.4375 0.203125,0.640625 0.06641,0.777344 -1.050781,0.945313 -4.433594,0.78125 -7.820313,2.066406 -10.96875,4.234375 -1.082031,0.742187 -2.132813,1.351562 -2.300781,1.351562 -0.574219,0 -3.011719,-2.976562 -3.417969,-4.230469 C 12.589844,8.582031 12.488281,7.292969 12.589844,6.480469 12.726562,5.261719 12.625,4.824219 12.117188,4.316406 11.335938,3.535156 10.828125,3.503906 9.847656,4.214844 9.203125,4.652344 9.101562,5.027344 9.101562,6.921875 V 9.089844 H 6.902344 c -1.929688,0 -2.234375,0.101562 -2.742188,0.84375 -0.675781,1.015625 -0.339844,2.132812 0.777344,2.574218 0.441406,0.167969 1.828125,0.304688 3.015625,0.304688 2.199219,0 2.234375,0 4.027344,1.726562 l 1.863281,1.761719 -0.984375,1.21875 C 10.660156,20.328125 8.59375,25.304688 7.917969,29.503906 7.75,30.652344 7.613281,30.753906 6.96875,30.550781 6.5625,30.449219 5.445312,29.605469 4.464844,28.691406 2.601562,26.929688 1.453125,26.589844 0.503906,27.574219 c -0.847656,0.8125 -0.644531,1.386719 1.015625,3.179687 l 1.589844,1.695313 -1.589844,1.691406 C -0.445312,36.207031 -0.476562,36.917969 1.25,37.832031 2.164062,38.304688 2.738281,38.035156 4.363281,36.339844 5.480469,35.15625 7.34375,33.9375 7.578125,34.207031 c 0.070313,0.07031 0.375,1.320313 0.679687,2.8125 0.710938,3.382813 2.0625,6.667969 3.859376,9.308594 1.523437,2.234375 1.523437,2.503906 -0.203126,4.128906 -1.253906,1.21875 -3.285156,2.03125 -4.808593,1.929688 -2.269531,-0.132813 -2.742188,0 -3.148438,0.882812 C 3.652344,53.910156 3.6875,54.25 4.160156,54.960938 4.667969,55.707031 4.9375,55.808594 6.902344,55.808594 h 2.199218 v 2.132812 c 0,2.539063 0.710938,3.519532 2.203126,3.148438 1.117187,-0.273438 1.523437,-1.390625 1.523437,-4.132813 0,-2.199219 0,-2.234375 1.726563,-4.027343 l 1.726562,-1.828126 1.589844,1.183594 c 2.878906,2.234375 7.074218,3.894532 11.644531,4.707032 1.117187,0.167968 1.253906,0.304687 1.050781,0.949218 -0.101562,0.40625 -0.980468,1.523438 -1.894531,2.503906 -1.863281,1.894532 -2.203125,3.25 -1.085937,4.0625 1.015624,0.746094 1.660156,0.507813 3.285156,-1.21875 l 1.523437,-1.625 1.457031,1.457032 c 1.65625,1.691406 2.367188,2.03125 3.351563,1.488281 1.21875,-0.644531 0.914063,-2.335937 -0.710937,-3.894531 -1.289063,-1.25 -2.539063,-3.113282 -2.269532,-3.382813 0.06641,-0.07031 1.320313,-0.375 2.808594,-0.679687 3.421875,-0.710938 7.007812,-2.199219 9.480469,-3.925782 2.132812,-1.488281 2.4375,-1.457031 4.164062,0.507813 1.253907,1.457031 1.894531,3.285156 1.660157,4.839844 -0.273438,1.59375 0.234374,2.742187 1.285156,3.015625 1.488281,0.371094 2.199218,-0.609375 2.199218,-3.148438 v -2.132812 h 2.132813 c 2.539063,0 3.523437,-0.710938 3.148437,-2.203125 -0.269531,-1.117188 -1.386718,-1.523438 -4.128906,-1.523438 -2.199218,0 -2.234375,0 -4.027344,-1.726562 l -1.863281,-1.757813 0.980469,-1.21875 c 2.234375,-2.84375 3.996094,-6.976562 4.773438,-11.105468 0.171874,-1.050782 0.40625,-1.964844 0.476562,-2.03125 0.269531,-0.304688 1.757812,0.675781 3.316406,2.167968 1.726563,1.691406 3.082032,1.996094 3.894532,0.914063 C 65.234375,36.375 65.0625,35.902344 63.40625,34.140625 l -1.59375,-1.691406 1.59375,-1.695313 c 0.84375,-0.914062 1.554688,-1.894531 1.554688,-2.164062 0,-0.710938 -1.625,-1.898438 -2.300782,-1.660156 -0.304687,0.101562 -1.253906,0.847656 -2.097656,1.625 -2.675781,2.539062 -3.691406,2.675781 -3.726562,0.507812 0,-2.371094 -1.996094,-7.515625 -4.0625,-10.527344 -0.742188,-1.085937 -1.351563,-2.132812 -1.351563,-2.304687 0,-0.574219 2.976563,-3.011719 4.230469,-3.417969 0.675781,-0.238281 1.964844,-0.339844 2.777344,-0.238281 1.21875,0.136719 1.65625,0.03516 2.164062,-0.472657 0.78125,-0.777343 0.8125,-1.285156 0.101562,-2.269531 -0.4375,-0.640625 -0.8125,-0.742187 -2.707031,-0.742187 H 55.820312 V 6.957031 c 0,-2.539062 -0.710937,-3.523437 -2.199218,-3.148437 -1.117188,0.269531 -1.523438,1.386718 -1.523438,4.128906 0,2.199219 0,2.234375 -1.726562,4.027344 l -1.761719,1.863281 -1.21875,-0.980469 C 44.546875,10.613281 40.417969,8.851562 36.289062,8.074219 35.238281,7.902344 34.324219,7.667969 34.257812,7.597656 c -0.304687,-0.269531 0.675782,-1.757812 2.097657,-3.25 1.589843,-1.65625 1.792969,-2.132812 1.386719,-3.28125 C 37.203125,-0.628906 35.375,-0.152344 33.613281,2.148438 L 32.699219,3.332031 30.90625,1.640625 C 29.007812,-0.152344 28.433594,-0.355469 27.585938,0.488281 Z m 3.117187,13.507813 c 0.03125,1.828125 0.269531,3.554687 0.472656,3.792968 0.441407,0.542969 2.03125,0.574219 2.574219,0.03516 0.269531,-0.273438 0.40625,-1.59375 0.40625,-3.726563 0,-2.402344 0.132812,-3.382812 0.4375,-3.484375 1.253906,-0.507812 7.820312,1.929688 10.328125,3.789063 1.25,0.949218 1.320313,1.320312 0.40625,2.472656 -0.8125,1.015625 -0.847656,2.132812 -0.136719,2.84375 0.710938,0.746094 1.183594,0.675781 2.707032,-0.339844 L 49.1875,18.5 l 0.777344,0.949219 c 1.863281,2.265625 4.535156,9.511719 4.027344,10.832031 -0.132813,0.371094 -0.945313,0.472656 -3.382813,0.472656 -3.488281,0 -4.265625,0.339844 -4.265625,1.828125 0,1.320313 0.8125,1.660157 4.398438,1.828125 1.863281,0.101563 3.386718,0.238282 3.386718,0.375 -0.06641,2.46875 -2.4375,8.5625 -4.164062,10.664063 L 49.1875,46.429688 47.796875,45.480469 c -2.808594,-1.828125 -4.195313,0.339843 -2.0625,3.285156 0.574219,0.8125 -0.238281,1.625 -3.117187,3.113281 -2.367188,1.253906 -7.242188,2.710938 -8.023438,2.40625 -0.304688,-0.101562 -0.4375,-1.085937 -0.4375,-3.488281 0,-3.589844 -0.238281,-4.128906 -1.695312,-4.128906 -1.453126,0 -1.691407,0.539062 -1.691407,4.128906 0,2.402344 -0.136719,3.386719 -0.441406,3.488281 -1.285156,0.507813 -8.023437,-2 -10.628906,-3.996094 l -1.117188,-0.8125 0.847657,-1.117187 c 0.980468,-1.320313 1.082031,-2.4375 0.304687,-3.183594 -0.710937,-0.742187 -1.117187,-0.675781 -2.640625,0.375 l -1.320312,0.878907 -0.679688,-0.8125 c -1.757812,-2.199219 -3.554688,-6.433594 -4.128906,-9.714844 l -0.238282,-1.421875 h 2.507813 c 4.433594,0 6.09375,-1.015625 5.007813,-3.015625 -0.335938,-0.640625 -0.640626,-0.710938 -3.722657,-0.710938 -1.828125,0 -3.417969,-0.132812 -3.554687,-0.304687 -0.675782,-1.117188 2.066406,-8.632813 3.996094,-11 L 15.738281,18.5 l 1.285157,0.878906 c 1.523437,1.015625 2,1.085938 2.710937,0.339844 0.742187,-0.710938 0.675781,-1.894531 -0.136719,-2.945312 -0.914062,-1.152344 -0.878906,-1.355469 0.441406,-2.335938 2.367188,-1.828125 8.359376,-4.128906 10.054688,-3.894531 0.40625,0.07031 0.539062,0.746093 0.609375,3.453125 z m 0,0"
         id="path2" />
      <g
         id="surface1-2"
         transform="matrix(1.1096485,0,0,1.1096485,26.407724,18.442672)"
         style="fill:#f2f1ec;fill-opacity:1;image-rendering:auto">
        <path
           id="path2-0"
           d="M 4.726562,0.191406 C 4.679688,0.355469 4.65625,0.394531 4.570312,0.46875 4.515625,0.515625 4.40625,0.640625 4.328125,0.75 L 4.191406,0.945312 4.253906,1.039062 4.316406,1.125 4.074219,1.867188 3.722656,2.050781 C 3.410156,2.214844 3.367188,2.242188 3.3125,2.339844 3.28125,2.398438 3.253906,2.449219 3.253906,2.457031 c 0,0.00391 0.035156,0.046875 0.078125,0.09375 0.0625,0.074219 0.070313,0.089844 0.03125,0.101563 -0.027343,0.011718 -0.03125,0.03125 -0.019531,0.089844 0.011719,0.058593 0.00391,0.078124 -0.054688,0.125 L 3.21875,2.921875 3.324219,3.175781 3.429688,3.425781 3.351562,3.5 C 3.234375,3.605469 3.226562,3.707031 3.339844,3.851562 3.441406,3.992188 3.449219,4.085938 3.371094,4.128906 3.339844,4.144531 3.304688,4.171875 3.296875,4.1875 3.28125,4.214844 3.265625,4.214844 3.214844,4.195312 3.125,4.152344 3.066406,4.222656 3.003906,4.472656 2.957031,4.636719 2.917969,4.71875 2.8125,4.859375 2.742188,4.960938 2.648438,5.074219 2.609375,5.121094 2.546875,5.183594 2.539062,5.210938 2.546875,5.300781 2.558594,5.390625 2.542969,5.441406 2.464844,5.601562 L 2.363281,5.796875 2.394531,6 c 0.023438,0.148438 0.023438,0.210938 0,0.257812 -0.023437,0.050782 -0.023437,0.078126 -0.00391,0.125 0.039063,0.085938 -0.039063,0.25 -0.121094,0.261719 C 2.21875,6.652344 2.210938,6.671875 2.1875,6.863281 2.171875,6.980469 2.148438,7.09375 2.128906,7.117188 2.109375,7.144531 2.089844,7.171875 2.085938,7.175781 2.082031,7.179688 2.0625,7.171875 2.042969,7.15625 2.003906,7.125 2,7.132812 1.96875,7.292969 1.945312,7.40625 2.0625,7.757812 2.136719,7.789062 L 2.1875,7.808594 2.132812,7.824219 2.082031,7.839844 2.132812,7.953125 c 0.082032,0.195313 0.160157,0.5 0.160157,0.628906 0,0.152344 0.027343,0.253907 0.054687,0.207031 0.015625,-0.027343 0.03125,-0.023437 0.082032,0.00781 0.074218,0.046875 0.082031,0.09375 0.027343,0.136719 -0.046875,0.039062 -0.046875,0.332031 0,0.417968 C 2.511719,9.441406 2.503906,9.480469 2.417969,9.527344 2.21875,9.636719 2.179688,9.691406 2.128906,9.9375 c -0.027344,0.125 -0.058594,0.234375 -0.070312,0.238281 -0.011719,0.0039 -0.042969,0.02344 -0.070313,0.04297 -0.042969,0.03516 -0.042969,0.03906 0.011719,0.08203 0.046875,0.03906 0.058594,0.07813 0.070312,0.242188 0.015626,0.210937 -0.00391,0.371093 -0.046874,0.371093 -0.015626,0 -0.078126,0.04688 -0.140626,0.105469 -0.058593,0.05859 -0.128906,0.117188 -0.148437,0.128907 -0.019531,0.01172 -0.0625,0.05469 -0.089844,0.09766 -0.042969,0.0625 -0.054687,0.109375 -0.054687,0.328125 -0.00391,0.140625 0.00391,0.285156 0.019531,0.328125 0.015625,0.05859 0.011719,0.08203 -0.027344,0.125 -0.042969,0.04687 -0.042969,0.05078 0.011719,0.207031 0.035156,0.08594 0.066406,0.214844 0.078125,0.289063 0.00781,0.07422 0.035156,0.152343 0.054687,0.175781 0.0625,0.06641 0.019532,0.125 -0.152343,0.199219 l -0.15625,0.07422 v 0.140625 c 0,0.179688 -0.082031,0.390625 -0.144531,0.371094 -0.03125,-0.01563 -0.035157,0.0039 -0.019532,0.140625 0.011719,0.136719 0.011719,0.160156 -0.03125,0.191406 -0.054687,0.04297 -0.09375,0.171875 -0.054687,0.171875 0.046875,0 0.03125,0.109375 -0.035157,0.230469 -0.046874,0.09375 -0.054687,0.125 -0.03125,0.179688 0.011719,0.04297 0.019532,0.160156 0.00781,0.324218 -0.015625,0.234375 -0.015625,0.261719 0.035156,0.34375 0.039063,0.06641 0.050781,0.121094 0.046875,0.210938 -0.00781,0.117187 -0.00781,0.117187 -0.109375,0.136718 -0.089843,0.01953 -0.105469,0.03125 -0.105469,0.08203 0,0.03125 0.011719,0.07813 0.023438,0.105468 0.019531,0.03516 0.015625,0.05078 -0.023438,0.07031 -0.039062,0.01953 -0.050781,0.05469 -0.050781,0.136719 0,0.132812 0.058594,0.234375 0.175781,0.308594 0.109376,0.0625 0.113282,0.07812 0.046876,0.140624 -0.03125,0.03125 -0.050782,0.08203 -0.050782,0.132813 0,0.07031 0.011719,0.08203 0.117188,0.128906 l 0.11719,0.04687 L 1.25,16.613281 c -0.070312,0.04297 -0.082031,0.05859 -0.070312,0.121094 0.00781,0.03906 -0.00781,0.125 -0.027344,0.1875 -0.019532,0.06641 -0.03125,0.132813 -0.023438,0.152344 0.011719,0.02344 0.078125,0.03906 0.199219,0.05078 0.101563,0.0078 0.195313,0.03125 0.207031,0.04687 0.015625,0.01953 0.019532,0.06641 0.011719,0.109375 -0.011719,0.0625 -0.023437,0.07813 -0.078125,0.07813 -0.039062,0 -0.078125,-0.01172 -0.089844,-0.02344 -0.015625,-0.0078 -0.101562,-0.0078 -0.199218,0.0039 C 1.015625,17.367188 1,17.371094 1,17.425781 c 0,0.05078 0.00781,0.05469 0.140625,0.05469 l 0.140625,0.0039 0.082031,0.117187 c 0.078125,0.113282 0.078125,0.128907 0.054688,0.195313 -0.019531,0.04687 -0.058594,0.08203 -0.117188,0.101563 -0.046875,0.01562 -0.085937,0.03906 -0.09375,0.05469 -0.00781,0.01563 0.00781,0.08984 0.035157,0.167969 l 0.050781,0.144531 -0.113281,0.05078 -0.113282,0.05469 0.074219,0.02734 c 0.058594,0.02344 0.074219,0.05469 0.105469,0.195312 l 0.042968,0.167969 -0.109374,0.05078 -0.113282,0.04297 0.011719,0.125 c 0.00781,0.06641 0.019531,0.140625 0.03125,0.164062 0.011719,0.02734 -0.015625,0.05859 -0.105469,0.113281 -0.167968,0.109376 -0.214844,0.171876 -0.246094,0.328126 -0.023437,0.125 -0.019531,0.148437 0.03125,0.277343 L 0.84375,20 0.714844,20.210938 c -0.074219,0.117187 -0.164063,0.234374 -0.199219,0.265624 -0.039063,0.03516 -0.144531,0.07422 -0.257813,0.09766 l -0.1874995,0.03906 -0.0234375,0.09766 c -0.0078125,0.05859 -0.0078125,0.15625 0,0.230468 0.015625,0.08203 0.0078125,0.199219 -0.0117188,0.339844 L 0,21.492188 l 0.152344,0.15625 0.148437,0.15625 0.128907,-0.01172 c 0.070312,-0.0078 0.1875,-0.02344 0.257812,-0.03125 0.121094,-0.01563 0.128906,-0.01172 0.15625,0.04297 0.039062,0.07812 0.015625,0.183593 -0.046875,0.230468 -0.050781,0.03125 -0.050781,0.03516 -0.003906,0.08203 0.042969,0.05078 0.042969,0.05859 0.003906,0.203124 l -0.039063,0.152344 0.113282,0.117188 0.117187,0.113281 0.671875,0.02734 c 0.625,0.01953 0.691406,0.02734 0.855469,0.08594 0.101563,0.03125 0.222656,0.05859 0.273437,0.05859 0.050782,0 0.148438,0.01953 0.222657,0.04687 0.152343,0.05078 0.367187,0.08984 0.367187,0.0625 0,-0.01172 -0.066406,-0.109375 -0.144531,-0.214844 C 2.992188,22.4375 2.886719,22.183594 2.886719,21.9375 c 0,-0.132812 0.011719,-0.171875 0.082031,-0.269531 0.066406,-0.09766 0.109375,-0.128907 0.273438,-0.199219 0.109374,-0.04687 0.246093,-0.105469 0.3125,-0.128906 0.058593,-0.02344 0.132812,-0.06641 0.160156,-0.101563 0.074218,-0.09375 0.132812,-0.296875 0.117187,-0.394531 -0.015625,-0.07031 -0.00391,-0.113281 0.046875,-0.199219 0.039063,-0.0625 0.097656,-0.136719 0.136719,-0.167969 0.035156,-0.03125 0.097656,-0.105468 0.132813,-0.160156 0.042968,-0.07422 0.078124,-0.101562 0.125,-0.101562 0.074218,0 0.378906,-0.152344 0.511718,-0.257813 0.054688,-0.04297 0.125,-0.08594 0.15625,-0.09375 0.03125,-0.01172 0.054688,-0.03516 0.054688,-0.06641 0,-0.02734 0.015625,-0.05469 0.035156,-0.0625 0.027344,-0.01172 0.03125,-0.02344 0.00781,-0.05859 -0.023437,-0.03125 -0.015624,-0.07813 0.015626,-0.199219 0.050781,-0.183593 0.035156,-0.292968 -0.042969,-0.34375 -0.03125,-0.01953 -0.152344,-0.04297 -0.277344,-0.05469 L 4.511719,19.0625 4.273438,18.871094 C 4.140625,18.769531 4.003906,18.636719 3.964844,18.578125 3.894531,18.46875 3.894531,18.464844 3.929688,18.347656 3.949219,18.277344 3.996094,18.179688 4.035156,18.128906 4.074219,18.074219 4.132812,17.972656 4.171875,17.902344 4.226562,17.789062 4.246094,17.773438 4.339844,17.75 4.585938,17.6875 4.625,17.671875 4.640625,17.625 c 0.019531,-0.05859 0.128906,-0.08203 0.378906,-0.08203 0.15625,0 0.183594,-0.0078 0.191407,-0.04687 C 5.214848,17.47266 5.199219,17.42969 5.175781,17.40626 5.132812,17.35939 5.136719,17.35548 5.1875,17.300791 c 0.03125,-0.03516 0.089844,-0.07422 0.125,-0.08984 0.128906,-0.05469 0.144531,-0.15625 0.085938,-0.632813 -0.015626,-0.105469 -0.011719,-0.113281 0.058593,-0.15625 0.046875,-0.02734 0.078125,-0.0625 0.078125,-0.08984 0,-0.03906 0.054688,-0.07422 0.242188,-0.164062 0.136718,-0.0625 0.246094,-0.117188 0.246094,-0.128907 0,-0.0078 -0.039063,-0.02734 -0.09375,-0.04297 -0.164063,-0.05078 -0.320313,-0.128906 -0.320313,-0.160156 0,-0.04688 0.207031,-0.136719 0.3125,-0.136719 0.105469,0 0.152344,0.03125 0.152344,0.109375 0,0.07813 0.105469,0.109375 0.269531,0.07813 C 6.417969,15.875 6.484375,15.863281 6.484375,15.855469 6.523438,15.820312 6.53125,15.652344 6.5,15.554688 6.441406,15.351562 6.433594,15.347656 6.21875,15.414062 c -0.144531,0.04688 -0.167969,0.05859 -0.101562,0.0625 0.058593,0 0.078124,0.01172 0.078124,0.04688 0,0.05469 -0.09375,0.07812 -0.238281,0.05859 -0.078125,-0.0078 -0.097656,-0.01953 -0.085937,-0.05469 0.00781,-0.03516 -0.015625,-0.05078 -0.117188,-0.07422 C 5.644531,15.425781 5.621094,15.414062 5.59375,15.339844 5.574219,15.292969 5.558594,15.175781 5.558594,15.054688 5.558594,14.9375 5.546875,14.820312 5.535156,14.789062 5.527344,14.757812 5.507812,14.667969 5.5,14.585938 5.484375,14.445312 5.488281,14.4375 5.546875,14.402344 c 0.054687,-0.02734 0.089844,-0.02344 0.324219,0.04687 0.144531,0.04687 0.3125,0.117187 0.375,0.15625 l 0.105468,0.07422 0.265626,-0.01563 C 6.84375,14.648434 6.902344,14.632804 7.082031,14.55468 7.195312,14.5078 7.3125,14.449211 7.34375,14.425773 c 0.050781,-0.03516 0.050781,-0.04297 0.015625,-0.152343 -0.023437,-0.0625 -0.050781,-0.117188 -0.0625,-0.128907 -0.03125,-0.01563 -0.027344,-0.171875 0,-0.191406 0.015625,-0.0078 0.027344,-0.05078 0.027344,-0.08984 0,-0.109375 0.039062,-0.175781 0.105469,-0.15625 0.054687,0.01172 0.058593,0 0.082031,-0.128906 C 7.535156,13.445312 7.535156,13.433594 7.46875,13.355469 7.363281,13.21875 7.347656,13.171875 7.347656,13.027344 c 0,-0.15625 0.03125,-0.175782 0.128906,-0.07813 0.035157,0.03125 0.105469,0.07031 0.15625,0.08594 0.304688,0.08594 1.214844,-0.03906 2.046876,-0.277344 0.375,-0.109374 0.738281,-0.320312 0.785156,-0.453124 0.01172,-0.04688 0.07813,-0.148438 0.140625,-0.21875 0.0625,-0.07422 0.179687,-0.222657 0.257812,-0.332032 0.121094,-0.160156 0.148438,-0.214844 0.160157,-0.320312 0.01953,-0.167969 -0.03125,-0.351563 -0.09766,-0.351563 -0.02734,0 -0.105469,-0.02734 -0.171875,-0.06641 -0.101562,-0.05469 -0.125,-0.08203 -0.148437,-0.160156 -0.03125,-0.113281 -0.01172,-0.242188 0.05469,-0.347657 0.0625,-0.105468 0.05859,-0.128906 -0.05078,-0.265624 -0.08203,-0.101563 -0.152344,-0.152344 -0.398437,-0.28125 C 9.84375,9.769531 9.8125,9.726562 9.859375,9.496094 9.886719,9.367188 9.886719,9.34375 9.84375,9.277344 9.792969,9.1875 9.789062,9.152344 9.828125,8.949219 9.851562,8.804688 9.863281,8.785156 9.976562,8.699219 l 0.121094,-0.09375 -0.01172,-0.203125 c -0.0078,-0.117188 -0.0039,-0.230469 0.01172,-0.261719 0.01953,-0.039063 0.01563,-0.082031 -0.01563,-0.164063 -0.03906,-0.101562 -0.03906,-0.113281 0.01172,-0.253906 0.02734,-0.078125 0.05859,-0.183594 0.07422,-0.234375 0.0078,-0.050781 0.02734,-0.101562 0.04297,-0.121093 0.04297,-0.050782 0.07812,-0.453126 0.04687,-0.535157 C 10.230469,6.746094 10.25,6.710938 10.457031,6.5 10.542969,6.414062 10.625,6.304688 10.640625,6.261719 c 0.01953,-0.042969 0.05859,-0.09375 0.09375,-0.109375 0.128906,-0.070313 0.261719,-0.222656 0.3125,-0.367188 0.03516,-0.089844 0.07422,-0.152344 0.101563,-0.15625 0.02734,-0.011718 0.06641,-0.054687 0.08594,-0.09375 0.02344,-0.042968 0.109375,-0.144531 0.195313,-0.226562 0.08984,-0.078125 0.210937,-0.222656 0.277343,-0.316406 0.105469,-0.152344 0.125,-0.175782 0.242188,-0.210938 0.07422,-0.023438 0.171875,-0.078125 0.222656,-0.125 0.04687,-0.042969 0.207031,-0.140625 0.351563,-0.214844 l 0.261718,-0.132812 0.105469,-0.179688 c 0.08594,-0.148437 0.09766,-0.195312 0.08594,-0.265625 -0.0078,-0.050781 0,-0.125 0.01172,-0.167969 0.02344,-0.066406 0.01953,-0.113281 -0.03125,-0.292968 C 12.902344,3.207031 12.882812,3.179688 12.78125,3.09375 l -0.113281,-0.097656 -0.117188,0.03125 c -0.0625,0.015625 -0.132812,0.035156 -0.160156,0.039062 -0.03125,0.00781 -0.03906,0.058594 -0.05469,0.273438 -0.01172,0.199218 -0.03125,0.292968 -0.07813,0.398437 -0.05469,0.125 -0.08594,0.152344 -0.261718,0.269531 C 11.886719,4.082031 11.773438,4.152344 11.75,4.164062 11.722656,4.179688 11.691406,4.222656 11.675781,4.265625 11.640625,4.371094 11.632812,4.375 11.5,4.332031 11.433594,4.3125 11.367188,4.296875 11.351562,4.296875 c -0.01172,0 -0.05859,0.046875 -0.105468,0.109375 l -0.07813,0.109375 -0.06641,-0.046875 c -0.0625,-0.042969 -0.07422,-0.046875 -0.121093,-0.011719 -0.04687,0.03125 -0.07031,0.03125 -0.207031,-0.00781 C 10.6875,4.429688 10.574219,4.378906 10.515625,4.339844 10.417969,4.273438 10.398438,4.273438 10.109375,4.265625 9.941406,4.261719 9.796875,4.253906 9.785156,4.242188 9.777344,4.234375 9.816406,4.164062 9.882812,4.085938 9.96875,3.972656 10,3.90625 10.027344,3.777344 10.0625,3.621094 10.1875,3.363281 10.296875,3.230469 10.328125,3.191406 10.378906,3.121094 10.40625,3.074219 L 10.460938,2.984375 10.351562,2.839844 C 10.214844,2.652344 9.964844,2.492188 9.6875,2.417969 9.457031,2.351562 9.460938,2.359375 9.140625,2.089844 L 8.886719,1.878906 H 8.738281 C 8.601562,1.878906 8.589844,1.875 8.359375,1.710938 8.226562,1.617188 8.09375,1.511719 8.058594,1.476562 8.023438,1.441406 7.898438,1.335938 7.777344,1.246094 7.554688,1.082031 7.554688,1.082031 7.507812,0.917969 7.464844,0.761719 7.457031,0.746094 7.332031,0.667969 7.261719,0.625 7.164062,0.535156 7.113281,0.476562 6.984375,0.320312 6.910156,0.292969 6.59375,0.300781 6.449219,0.300781 6.316406,0.296875 6.296875,0.292969 6.273438,0.28125 6.246094,0.328125 6.207031,0.4375 6.179688,0.527344 6.132812,0.632812 6.113281,0.675781 6.089844,0.71875 6.074219,0.804688 6.074219,0.867188 V 0.984375 L 5.925781,0.738281 C 5.742188,0.429688 5.71875,0.414062 5.378906,0.414062 h -0.25 L 5.054688,0.335938 C 5.011719,0.292969 4.9375,0.199219 4.886719,0.125 4.835938,0.0585938 4.792969,0 4.789062,0 4.785156,0 4.757812,0.0859375 4.726562,0.191406 Z m 0,0"
           style="fill:#f2f1ec;fill-opacity:1;fill-rule:nonzero;stroke:none" />
        <path
           id="path4"
           d="M 3.230469,24.082031 V 24.875 l 0.226562,-0.01172 c 0.261719,-0.01563 0.585938,0.01563 0.933594,0.09375 l 0.242187,0.05078 0.164063,-0.04297 c 0.113281,-0.03516 0.21875,-0.04687 0.359375,-0.04297 l 0.199219,0.0039 0.0625,-0.09375 0.066406,-0.09766 -0.167969,-0.01563 C 5.226562,24.71093 5.035156,24.67967 4.890625,24.65232 4.648438,24.60545 4.609375,24.59373 4.484375,24.492164 4.410156,24.433574 4.234375,24.332007 4.101562,24.269507 3.871094,24.160156 3.84375,24.140625 3.6875,23.953125 3.546875,23.78125 3.507812,23.753906 3.425781,23.738281 c -0.082031,-0.01172 -0.09375,-0.02344 -0.101562,-0.07813 -0.00781,-0.03906 0.00781,-0.08594 0.035156,-0.117187 0.046875,-0.05078 0.046875,-0.05469 0,-0.125 -0.132813,-0.179688 -0.128906,-0.203125 -0.128906,0.664062 z m 0,0"
           style="fill:#f2f1ec;fill-opacity:1;fill-rule:nonzero;stroke:none" />
      </g>
      <g
         style="font-style:normal;font-weight:normal;font-size:30px;line-height:1.25;font-family:sans-serif;fill:#f2f1ec;fill-opacity:1;stroke:none;stroke-width:0.75"
         id="text33"
         aria-label="COVID-19">
        <path
           id="path874"
           style="font-style:normal;font-variant:normal;font-weight:normal;font-stretch:normal;font-size:22px;font-family:'Segoe UI';-inkscape-font-specification:'Segoe UI, Normal';font-variant-ligatures:normal;font-variant-caps:normal;font-variant-numeric:normal;font-variant-east-asian:normal;fill:#f2f1ec;fill-opacity:1;stroke-width:0.75"
           d="m 79.890152,29.075384 q -1.708008,0.902344 -4.253906,0.902344 -3.28711,0 -5.263672,-2.116211 -1.976563,-2.116211 -1.976563,-5.553711 0,-3.695312 2.223633,-5.972656 2.223633,-2.277344 5.639649,-2.277344 2.191406,0 3.630859,0.633789 v 1.922852 q -1.654297,-0.923828 -3.652344,-0.923828 -2.65332,0 -4.307617,1.77246 -1.643555,1.772461 -1.643555,4.737305 0,2.814453 1.536133,4.490235 1.546875,1.665039 4.049805,1.665039 2.320312,0 4.017578,-1.03125 z" />
        <path
           id="path876"
           style="font-style:normal;font-variant:normal;font-weight:normal;font-stretch:normal;font-size:22px;font-family:'Segoe UI';-inkscape-font-specification:'Segoe UI, Normal';font-variant-ligatures:normal;font-variant-caps:normal;font-variant-numeric:normal;font-variant-east-asian:normal;fill:#f2f1ec;fill-opacity:1;stroke-width:0.75"
           d="m 88.634293,29.977728 q -3.276368,0 -5.25293,-2.15918 -1.96582,-2.159179 -1.96582,-5.618164 0,-3.716797 2.008789,-5.929687 2.008789,-2.212891 5.467773,-2.212891 3.19043,0 5.134766,2.148438 1.955078,2.148437 1.955078,5.618164 0,3.770507 -1.998047,5.961914 -1.998047,2.191406 -5.349609,2.191406 z m 0.128906,-14.287109 q -2.427735,0 -3.942383,1.750976 -1.514648,1.750977 -1.514648,4.597656 0,2.84668 1.471679,4.586914 1.482422,1.729493 3.856446,1.729493 2.535156,0 3.996093,-1.654297 1.460938,-1.654297 1.460938,-4.629883 0,-3.050781 -1.417969,-4.71582 -1.417969,-1.665039 -3.910156,-1.665039 z" />
        <path
           id="path878"
           style="font-style:normal;font-variant:normal;font-weight:normal;font-stretch:normal;font-size:22px;font-family:'Segoe UI';-inkscape-font-specification:'Segoe UI, Normal';font-variant-ligatures:normal;font-variant-caps:normal;font-variant-numeric:normal;font-variant-east-asian:normal;fill:#f2f1ec;fill-opacity:1;stroke-width:0.75"
           d="m 109.94679,14.315619 -5.7041,15.404296 h -1.9873 L 96.669449,14.315619 h 2.008789 l 4.264652,12.213867 q 0.2041,0.59082 0.31152,1.364258 h 0.043 q 0.0859,-0.644532 0.35449,-1.385743 l 4.35059,-12.192382 z" />
        <path
           id="path880"
           style="font-style:normal;font-variant:normal;font-weight:normal;font-stretch:normal;font-size:22px;font-family:'Segoe UI';-inkscape-font-specification:'Segoe UI, Normal';font-variant-ligatures:normal;font-variant-caps:normal;font-variant-numeric:normal;font-variant-east-asian:normal;fill:#f2f1ec;fill-opacity:1;stroke-width:0.75"
           d="m 113.96437,29.719915 h -1.80469 V 14.315619 h 1.80469 z" />
        <path
           id="path882"
           style="font-style:normal;font-variant:normal;font-weight:normal;font-stretch:normal;font-size:22px;font-family:'Segoe UI';-inkscape-font-specification:'Segoe UI, Normal';font-variant-ligatures:normal;font-variant-caps:normal;font-variant-numeric:normal;font-variant-east-asian:normal;fill:#f2f1ec;fill-opacity:1;stroke-width:0.75"
           d="M 118.00343,29.719915 V 14.315619 h 4.25391 q 8.14258,0 8.14258,7.508789 0,3.566406 -2.2666,5.736328 -2.25586,2.159179 -6.04786,2.159179 z m 1.80469,-13.771484 v 12.138672 h 2.29883 q 3.0293,0 4.71582,-1.62207 1.68652,-1.622071 1.68652,-4.597657 0,-5.918945 -6.29492,-5.918945 z" />
        <path
           id="path884"
           style="font-style:normal;font-variant:normal;font-weight:normal;font-stretch:normal;font-size:22px;font-family:'Segoe UI';-inkscape-font-specification:'Segoe UI, Normal';font-variant-ligatures:normal;font-variant-caps:normal;font-variant-numeric:normal;font-variant-east-asian:normal;fill:#f2f1ec;fill-opacity:1;stroke-width:0.75"
           d="m 138.82179,24.284369 h -5.86523 v -1.385743 h 5.86523 z" />
        <path
           id="path886"
           style="font-style:normal;font-variant:normal;font-weight:normal;font-stretch:normal;font-size:22px;font-family:'Segoe UI';-inkscape-font-specification:'Segoe UI, Normal';font-variant-ligatures:normal;font-variant-caps:normal;font-variant-numeric:normal;font-variant-east-asian:normal;fill:#f2f1ec;fill-opacity:1;stroke-width:0.75"
           d="m 147.99562,29.719915 h -1.76172 v -13.30957 q -0.2041,0.204102 -0.60156,0.472656 -0.38672,0.257813 -0.88086,0.515625 -0.4834,0.257813 -1.03125,0.483399 -0.53711,0.225586 -1.05273,0.354492 v -1.783203 q 0.58007,-0.161133 1.22461,-0.429688 0.65527,-0.279297 1.27832,-0.612304 0.63378,-0.34375 1.19238,-0.708985 0.55859,-0.375976 0.9668,-0.730468 h 0.66601 z" />
        <path
           id="path888"
           style="font-style:normal;font-variant:normal;font-weight:normal;font-stretch:normal;font-size:22px;font-family:'Segoe UI';-inkscape-font-specification:'Segoe UI, Normal';font-variant-ligatures:normal;font-variant-caps:normal;font-variant-numeric:normal;font-variant-east-asian:normal;fill:#f2f1ec;fill-opacity:1;stroke-width:0.75"
           d="m 162.86281,21.093939 q 0,2.116211 -0.41895,3.770508 -0.41894,1.643554 -1.22461,2.792968 -0.80566,1.138672 -1.96582,1.740235 -1.16015,0.59082 -2.64257,0.59082 -1.5254,0 -2.68555,-0.537109 v -1.686524 q 1.27832,0.719727 2.72851,0.719727 1.042,0 1.8584,-0.429688 0.82715,-0.429687 1.39649,-1.246093 0.56933,-0.827149 0.87011,-2.030274 0.30079,-1.203125 0.30079,-2.760742 h -0.043 q -0.98828,1.987305 -3.4375,1.987305 -0.98828,0 -1.81543,-0.34375 -0.82715,-0.354493 -1.42871,-0.988282 -0.60157,-0.644531 -0.93457,-1.52539 -0.33301,-0.88086 -0.33301,-1.944336 0,-1.138672 0.36523,-2.083985 0.37598,-0.945312 1.03125,-1.62207 0.66602,-0.6875 1.56836,-1.063476 0.91309,-0.375977 1.98731,-0.375977 1.16015,0 2.05175,0.472656 0.90235,0.461914 1.51465,1.364258 0.61231,0.891602 0.93457,2.202149 0.32227,1.310546 0.32227,2.99707 z m -1.90137,-1.579102 q 0,-0.891601 -0.23633,-1.62207 -0.22558,-0.730469 -0.63379,-1.246094 -0.4082,-0.526367 -0.97754,-0.805664 -0.55859,-0.290039 -1.2246,-0.290039 -0.63379,0 -1.18165,0.257813 -0.54785,0.24707 -0.95605,0.708984 -0.39746,0.451172 -0.63379,1.084961 -0.22558,0.623047 -0.22558,1.364258 0,0.816406 0.21484,1.460937 0.22558,0.644531 0.63379,1.095703 0.4082,0.44043 0.97754,0.676758 0.58008,0.236328 1.27832,0.236328 0.6123,0 1.14941,-0.225586 0.54785,-0.236328 0.94531,-0.623047 0.40821,-0.39746 0.63379,-0.923828 0.23633,-0.537109 0.23633,-1.149414 z" />
      </g>
      <g
         style="font-style:normal;font-variant:normal;font-weight:normal;font-stretch:normal;font-size:30px;line-height:1.25;font-family:'Segoe UI';-inkscape-font-specification:'Segoe UI, Normal';font-variant-ligatures:normal;font-variant-caps:normal;font-variant-numeric:normal;font-variant-east-asian:normal;fill:#f2f1ec;fill-opacity:1;stroke:none;stroke-width:0.75"
         id="text39"
         aria-label="ARGENTINA">
        <path
           id="path891"
           style="font-style:normal;font-variant:normal;font-weight:normal;font-stretch:normal;font-size:22px;font-family:'Segoe UI';-inkscape-font-specification:'Segoe UI, Normal';font-variant-ligatures:normal;font-variant-caps:normal;font-variant-numeric:normal;font-variant-east-asian:normal;fill:#f2f1ec;fill-opacity:1;stroke-width:0.75"
           d="M 81.62838,50.156883 H 79.630333 L 77.99752,45.838524 h -6.53125 l -1.536132,4.318359 h -2.008789 l 5.908203,-15.404297 h 1.86914 z M 77.4067,44.216454 74.989708,37.652977 q -0.118164,-0.322266 -0.236328,-1.03125 h -0.04297 q -0.107422,0.655273 -0.24707,1.03125 l -2.395508,6.563477 z" />
        <path
           id="path893"
           style="font-style:normal;font-variant:normal;font-weight:normal;font-stretch:normal;font-size:22px;font-family:'Segoe UI';-inkscape-font-specification:'Segoe UI, Normal';font-variant-ligatures:normal;font-variant-caps:normal;font-variant-numeric:normal;font-variant-east-asian:normal;fill:#f2f1ec;fill-opacity:1;stroke-width:0.75"
           d="M 94.927208,50.156883 H 92.77877 l -2.578125,-4.318359 q -0.354492,-0.601563 -0.6875,-1.020508 -0.333007,-0.429687 -0.6875,-0.698242 -0.34375,-0.268555 -0.751953,-0.386719 -0.397461,-0.128906 -0.902343,-0.128906 h -1.482422 v 6.552734 H 83.884239 V 34.752586 h 4.597656 q 1.009766,0 1.858399,0.257813 0.859375,0.24707 1.482422,0.762695 0.633789,0.515625 0.988281,1.289063 0.354492,0.762695 0.354492,1.793945 0,0.805664 -0.24707,1.482422 -0.236328,0.666015 -0.6875,1.192383 -0.44043,0.526367 -1.074219,0.902343 -0.623047,0.365235 -1.407226,0.569336 v 0.04297 q 0.386718,0.171875 0.666015,0.397461 0.290039,0.214844 0.547852,0.515625 0.257812,0.300781 0.504883,0.6875 0.257812,0.375977 0.569336,0.880859 z M 85.688927,36.385399 v 5.585937 h 2.449218 q 0.676758,0 1.246094,-0.204101 0.580078,-0.204102 0.999024,-0.580078 0.418945,-0.386719 0.655273,-0.934571 0.236328,-0.558593 0.236328,-1.246093 0,-1.235352 -0.805664,-1.922852 -0.794922,-0.698242 -2.30957,-0.698242 z" />
        <path
           id="path895"
           style="font-style:normal;font-variant:normal;font-weight:normal;font-stretch:normal;font-size:22px;font-family:'Segoe UI';-inkscape-font-specification:'Segoe UI, Normal';font-variant-ligatures:normal;font-variant-caps:normal;font-variant-numeric:normal;font-variant-east-asian:normal;fill:#f2f1ec;fill-opacity:1;stroke-width:0.75"
           d="m 108.24752,49.104149 q -2.32031,1.310547 -5.15625,1.310547 -3.297851,0 -5.338867,-2.126953 -2.030273,-2.126954 -2.030273,-5.628907 0,-3.577148 2.255859,-5.865234 2.266601,-2.298828 5.736331,-2.298828 2.51367,0 4.22168,0.816406 v 1.998047 q -1.86914,-1.181641 -4.42578,-1.181641 -2.58887,0 -4.243168,1.783203 -1.654297,1.783204 -1.654297,4.619141 0,2.921875 1.536133,4.597656 1.536132,1.665039 4.167972,1.665039 1.80468,0 3.12597,-0.719726 v -4.31836 h -3.37304 v -1.632812 h 5.17773 z" />
        <path
           id="path897"
           style="font-style:normal;font-variant:normal;font-weight:normal;font-stretch:normal;font-size:22px;font-family:'Segoe UI';-inkscape-font-specification:'Segoe UI, Normal';font-variant-ligatures:normal;font-variant-caps:normal;font-variant-numeric:normal;font-variant-east-asian:normal;fill:#f2f1ec;fill-opacity:1;stroke-width:0.75"
           d="m 119.97799,50.156883 h -8.16406 V 34.752586 h 7.82031 v 1.632813 h -6.01563 v 5.124023 h 5.56446 v 1.622071 h -5.56446 v 5.392578 h 6.35938 z" />
        <path
           id="path899"
           style="font-style:normal;font-variant:normal;font-weight:normal;font-stretch:normal;font-size:22px;font-family:'Segoe UI';-inkscape-font-specification:'Segoe UI, Normal';font-variant-ligatures:normal;font-variant-caps:normal;font-variant-numeric:normal;font-variant-east-asian:normal;fill:#f2f1ec;fill-opacity:1;stroke-width:0.75"
           d="m 135.3608,50.156883 h -2.21289 l -7.92773,-12.27832 q -0.30078,-0.461914 -0.49414,-0.966797 h -0.0645 q 0.0859,0.494141 0.0859,2.116211 v 11.128906 h -1.80469 V 34.752586 h 2.3418 l 7.71289,12.084961 q 0.4834,0.751953 0.62305,1.03125 h 0.043 q -0.10743,-0.666015 -0.10743,-2.266601 v -10.84961 h 1.80469 z" />
        <path
           id="path901"
           style="font-style:normal;font-variant:normal;font-weight:normal;font-stretch:normal;font-size:22px;font-family:'Segoe UI';-inkscape-font-specification:'Segoe UI, Normal';font-variant-ligatures:normal;font-variant-caps:normal;font-variant-numeric:normal;font-variant-east-asian:normal;fill:#f2f1ec;fill-opacity:1;stroke-width:0.75"
           d="m 148.50924,36.385399 h -4.44727 v 13.771484 h -1.80468 V 36.385399 h -4.43653 v -1.632813 h 10.68848 z" />
        <path
           id="path903"
           style="font-style:normal;font-variant:normal;font-weight:normal;font-stretch:normal;font-size:22px;font-family:'Segoe UI';-inkscape-font-specification:'Segoe UI, Normal';font-variant-ligatures:normal;font-variant-caps:normal;font-variant-numeric:normal;font-variant-east-asian:normal;fill:#f2f1ec;fill-opacity:1;stroke-width:0.75"
           d="m 152.72018,50.156883 h -1.80469 V 34.752586 h 1.80469 z" />
        <path
           id="path905"
           style="font-style:normal;font-variant:normal;font-weight:normal;font-stretch:normal;font-size:22px;font-family:'Segoe UI';-inkscape-font-specification:'Segoe UI, Normal';font-variant-ligatures:normal;font-variant-caps:normal;font-variant-numeric:normal;font-variant-east-asian:normal;fill:#f2f1ec;fill-opacity:1;stroke-width:0.75"
           d="m 169.17721,50.156883 h -2.21289 l -7.92774,-12.27832 q -0.30078,-0.461914 -0.49414,-0.966797 h -0.0644 q 0.0859,0.494141 0.0859,2.116211 v 11.128906 h -1.80469 V 34.752586 h 2.3418 l 7.71289,12.084961 q 0.4834,0.751953 0.62304,1.03125 h 0.043 q -0.10742,-0.666015 -0.10742,-2.266601 v -10.84961 h 1.80469 z" />
        <path
           id="path907"
           style="font-style:normal;font-variant:normal;font-weight:normal;font-stretch:normal;font-size:22px;font-family:'Segoe UI';-inkscape-font-specification:'Segoe UI, Normal';font-variant-ligatures:normal;font-variant-caps:normal;font-variant-numeric:normal;font-variant-east-asian:normal;fill:#f2f1ec;fill-opacity:1;stroke-width:0.75"
           d="m 185.1401,50.156883 h -1.99805 l -1.63281,-4.318359 h -6.53125 l -1.53613,4.318359 h -2.00879 l 5.9082,-15.404297 h 1.86914 z m -4.22168,-5.940429 -2.41699,-6.563477 q -0.11817,-0.322266 -0.23633,-1.03125 h -0.043 q -0.10742,0.655273 -0.24707,1.03125 l -2.39551,6.563477 z" />
      </g>
    </g>
  </g>
</svg>
